<svg width="33" height="33" viewBox="0 0 33 33" fill="none" xmlns="http://www.w3.org/2000/svg">
<path fill-rule="evenodd" clip-rule="evenodd" d="M11 19C15.4183 19 19 15.4183 19 11C19 6.58172 15.4183 3 11 3C6.58172 3 3 6.58172 3 11C3 15.4183 6.58172 19 11 19ZM11 22C17.0751 22 22 17.0751 22 11C22 4.92487 17.0751 0 11 0C4.92487 0 0 4.92487 0 11C0 17.0751 4.92487 22 11 22Z" fill="white"/>
<path d="M15.7322 10.0922C13.1535 8.56069 8.89994 8.41991 6.43821 9.16705C6.04279 9.28698 5.6248 9.06387 5.50508 8.66852C5.38528 8.27296 5.60818 7.85518 6.00374 7.73503C8.82973 6.87727 13.5273 7.04292 16.496 8.80516C16.8517 9.0163 16.9682 9.47549 16.7574 9.83043C16.5465 10.186 16.0869 10.3033 15.7322 10.0922M15.6478 12.3604C15.4669 12.654 15.083 12.746 14.7898 12.5658C12.64 11.2443 9.36164 10.8614 6.81816 11.6335C6.48837 11.7331 6.13995 11.5472 6.03978 11.218C5.99203 11.0597 6.009 10.8889 6.08697 10.7431C6.16493 10.5973 6.29753 10.4883 6.4557 10.4401C9.36121 9.55838 12.9733 9.9854 15.4426 11.5029C15.7357 11.6834 15.828 12.0675 15.6478 12.3604ZM14.6688 14.5387C14.6348 14.5947 14.59 14.6434 14.5371 14.682C14.4842 14.7207 14.4242 14.7485 14.3605 14.7639C14.2968 14.7793 14.2307 14.782 14.166 14.7719C14.1012 14.7617 14.0391 14.7389 13.9833 14.7047C12.1047 13.5565 9.74008 13.2972 6.95536 13.9333C6.89156 13.9479 6.8255 13.9498 6.76097 13.9388C6.69644 13.9279 6.63469 13.9043 6.57926 13.8695C6.52383 13.8347 6.4758 13.7893 6.43792 13.736C6.40003 13.6826 6.37304 13.6223 6.35847 13.5585C6.3438 13.4946 6.34186 13.4285 6.35277 13.364C6.36369 13.2994 6.38723 13.2376 6.42206 13.1821C6.45688 13.1267 6.50231 13.0786 6.55574 13.0407C6.60916 13.0028 6.66954 12.9759 6.7334 12.9613C9.78078 12.2648 12.3948 12.5646 14.5034 13.8531C14.5593 13.8872 14.6079 13.932 14.6465 13.985C14.6851 14.0379 14.7128 14.0979 14.7282 14.1616C14.7436 14.2253 14.7463 14.2914 14.7361 14.3561C14.7259 14.4208 14.703 14.4828 14.6688 14.5387ZM10.9999 3C6.58179 3 3 6.58165 3 10.9999C3 15.4185 6.58179 19 10.9999 19C15.4183 19 19 15.4185 19 10.9999C19 6.58172 15.4183 3 10.9999 3Z" fill="#1ED660"/>
<path fill-rule="evenodd" clip-rule="evenodd" d="M20.5858 20.5858C21.3668 19.8047 22.5172 19.6887 23.1551 20.3267L31.3232 28.4948C31.9612 29.1328 31.8452 30.2831 31.0642 31.0642C30.2831 31.8452 29.1328 31.9612 28.4948 31.3232L20.3267 23.1551C19.6887 22.5172 19.8047 21.3668 20.5858 20.5858Z" fill="white"/>
<path fill-rule="evenodd" clip-rule="evenodd" d="M17.2929 17.2929C17.6834 16.9024 18.3166 16.9024 18.7071 17.2929L21.7071 20.2929C22.0976 20.6834 22.0976 21.3166 21.7071 21.7071C21.3166 22.0976 20.6834 22.0976 20.2929 21.7071L17.2929 18.7071C16.9024 18.3166 16.9024 17.6834 17.2929 17.2929Z" fill="white"/>
</svg>
