<svg width="2498" height="1743" viewBox="0 0 2498 1743" fill="none" xmlns="http://www.w3.org/2000/svg">
<path d="M1011.42 842.764C934.309 796.97 807.113 792.76 733.499 815.101C721.675 818.687 709.176 812.015 705.597 800.193C702.015 788.364 708.678 775.872 720.507 772.28C805.014 746.628 945.486 751.582 1034.26 804.279C1044.89 810.593 1048.38 824.324 1042.08 834.937C1035.77 845.572 1022.03 849.078 1011.42 842.764ZM1008.9 910.591C1003.48 919.371 992.006 922.124 983.24 916.733C918.953 877.217 820.921 865.769 744.862 888.857C735 891.834 724.58 886.277 721.586 876.43C720.157 871.695 720.666 866.589 722.997 862.229C725.328 857.87 729.293 854.613 734.023 853.171C820.908 826.804 928.92 839.572 1002.76 884.951C1011.53 890.349 1014.28 901.833 1008.9 910.591ZM979.623 975.733C978.603 977.405 977.266 978.862 975.683 980.017C974.099 981.172 972.305 982.005 970.4 982.466C968.497 982.927 966.52 983.007 964.585 982.703C962.649 982.398 960.792 981.715 959.122 980.693C902.945 946.36 832.236 938.607 748.964 957.627C747.057 958.065 745.082 958.121 743.151 957.793C741.222 957.467 739.375 956.762 737.718 955.72C736.061 954.678 734.623 953.321 733.49 951.725C732.357 950.131 731.55 948.326 731.115 946.419C730.676 944.509 730.62 942.532 730.946 940.601C731.272 938.67 731.974 936.824 733.016 935.164C734.058 933.505 735.417 932.069 737.013 930.936C738.612 929.803 740.417 928.996 742.326 928.564C833.454 907.734 911.62 916.698 974.676 955.229C976.348 956.249 977.801 957.591 978.953 959.172C980.108 960.755 980.939 962.551 981.398 964.454C981.857 966.359 981.937 968.334 981.633 970.27C981.328 972.205 980.643 974.06 979.623 975.733ZM869.908 630.686C737.794 630.686 630.686 737.79 630.686 869.908C630.686 1002.04 737.794 1109.14 869.91 1109.14C1002.03 1109.14 1109.14 1002.04 1109.14 869.908C1109.14 737.792 1002.03 630.686 869.908 630.686Z" fill="white" fill-opacity="0.1"/>
<path d="M420.198 337.952C334.419 311.774 209.86 337.881 143.654 377.06C133.02 383.351 119.294 379.837 113.01 369.202C106.723 358.562 110.23 344.845 120.868 338.547C196.869 293.567 334.501 265.031 433.248 295.146C445.077 298.754 451.722 311.266 448.121 323.071C444.519 334.899 432.002 341.567 420.198 337.952ZM433.848 404.44C430.676 414.253 420.179 419.653 410.383 416.497C338.553 393.373 240.606 405.525 172.203 446.009C163.329 451.243 151.888 448.319 146.641 439.464C144.129 435.204 143.411 430.123 144.641 425.333C145.871 420.546 148.949 416.44 153.201 413.917C231.342 367.677 339.298 354.437 421.799 380.989C431.598 384.151 437.004 394.653 433.848 404.44ZM420.877 474.668C420.283 476.535 419.33 478.268 418.066 479.766C416.802 481.263 415.257 482.498 413.516 483.398C411.777 484.298 409.875 484.845 407.923 485.009C405.97 485.173 404.004 484.951 402.139 484.354C339.417 464.339 268.89 473.594 192.514 511.84C190.765 512.718 188.86 513.241 186.906 513.381C184.955 513.522 182.994 513.276 181.136 512.657C179.279 512.039 177.561 511.062 176.081 509.78C174.602 508.501 173.39 506.939 172.514 505.189C171.634 503.439 171.11 501.532 170.968 499.578C170.827 497.625 171.071 495.664 171.689 493.805C172.307 491.946 173.287 490.229 174.568 488.749C175.852 487.269 177.414 486.057 179.166 485.183C262.743 443.315 340.803 433.466 411.203 455.925C413.07 456.519 414.799 457.477 416.294 458.74C417.792 460.004 419.026 461.551 419.923 463.291C420.821 465.033 421.368 466.932 421.532 468.884C421.696 470.837 421.471 472.801 420.877 474.668ZM232.382 165.533C104.046 196.898 25.4269 326.367 56.7923 454.708C88.1608 583.062 217.632 661.671 345.971 630.306C474.316 598.94 552.934 469.475 521.565 341.121C490.201 212.783 360.73 134.166 232.382 165.533Z" fill="white" fill-opacity="0.1"/>
<path d="M612.73 1460.1C550.946 1395.09 429.669 1356.51 352.754 1358.03C340.4 1358.27 330.182 1348.46 329.946 1336.11C329.71 1323.75 339.514 1313.54 351.874 1313.29C440.172 1311.54 574.023 1354.45 645.159 1429.26C653.681 1438.23 653.306 1452.39 644.361 1460.89C635.404 1469.41 621.226 1469.06 612.73 1460.1ZM591.888 1524.7C584.297 1531.68 572.502 1531.21 565.528 1523.64C514.382 1468.16 423.139 1430.53 343.669 1432.1C333.368 1432.29 324.849 1424.12 324.64 1413.83C324.55 1408.88 326.425 1404.1 329.853 1400.54C333.28 1396.98 337.98 1394.92 342.924 1394.82C433.704 1393.02 534.194 1434.63 592.941 1498.35C599.915 1505.93 599.452 1517.73 591.888 1524.7ZM546.031 1579.45C544.595 1580.78 542.913 1581.82 541.075 1582.5C539.238 1583.18 537.285 1583.5 535.326 1583.42C533.37 1583.35 531.445 1582.89 529.665 1582.07C527.885 1581.25 526.283 1580.09 524.953 1578.65C480.205 1530.36 414.257 1503.7 328.948 1499.41C326.993 1499.31 325.078 1498.83 323.308 1497.99C321.54 1497.15 319.954 1495.97 318.642 1494.52C317.33 1493.06 316.315 1491.37 315.657 1489.52C315 1487.68 314.713 1485.73 314.812 1483.77C314.908 1481.82 315.39 1479.9 316.228 1478.13C317.066 1476.36 318.244 1474.77 319.697 1473.46C321.15 1472.14 322.848 1471.13 324.692 1470.47C326.538 1469.82 328.494 1469.53 330.449 1469.63C423.81 1474.32 496.607 1504.17 546.835 1558.37C548.168 1559.8 549.202 1561.49 549.882 1563.32C550.564 1565.16 550.876 1567.12 550.801 1569.07C550.725 1571.03 550.267 1572.95 549.448 1574.73C548.63 1576.51 547.467 1578.11 546.031 1579.45ZM534.102 1217.57C406.949 1181.71 274.789 1255.72 238.924 1382.87C203.056 1510.04 277.068 1642.19 404.223 1678.06C531.384 1713.92 663.541 1639.92 699.41 1512.75C735.274 1385.6 661.265 1253.44 534.102 1217.57Z" fill="white" fill-opacity="0.1"/>
<path d="M2303.64 450.878C2214.77 438.853 2096.04 484.676 2037.01 534.004C2027.52 541.925 2013.41 540.666 2005.5 531.183C1997.58 521.694 1998.83 507.591 2008.32 499.663C2076.08 443.031 2207.32 392.706 2309.63 406.528C2321.89 408.185 2330.46 419.464 2328.81 431.694C2327.16 443.948 2315.88 452.545 2303.64 450.878ZM2327.82 514.3C2326.27 524.496 2316.78 531.515 2306.6 529.978C2231.99 518.721 2137.28 546.487 2076.28 597.457C2068.37 604.051 2056.61 603.007 2050 595.112C2046.84 591.312 2045.31 586.413 2045.75 581.488C2046.2 576.566 2048.57 572.018 2052.36 568.842C2122.04 510.624 2226.45 480.174 2312.15 493.096C2322.33 494.638 2329.36 504.133 2327.82 514.3ZM2326.33 585.7C2326.04 587.638 2325.38 589.502 2324.37 591.184C2323.37 592.866 2322.04 594.333 2320.47 595.502C2318.9 596.67 2317.11 597.516 2315.21 597.992C2313.31 598.468 2311.33 598.566 2309.39 598.277C2244.27 588.623 2176.15 609.113 2106.93 659.158C2105.34 660.306 2103.55 661.129 2101.64 661.582C2099.74 662.035 2097.76 662.108 2095.83 661.796C2093.9 661.485 2092.05 660.798 2090.38 659.771C2088.71 658.746 2087.27 657.4 2086.12 655.814C2084.97 654.228 2084.15 652.43 2083.69 650.525C2083.24 648.62 2083.16 646.646 2083.47 644.712C2083.78 642.777 2084.47 640.925 2085.5 639.258C2086.53 637.59 2087.88 636.142 2089.46 634.998C2165.21 580.218 2240.66 557.929 2313.76 568.76C2315.7 569.045 2317.56 569.713 2319.24 570.718C2320.92 571.724 2322.39 573.053 2323.55 574.625C2324.72 576.2 2325.57 577.986 2326.04 579.887C2326.52 581.787 2326.61 583.762 2326.33 585.7ZM2090.52 310.95C1968.9 362.57 1912.16 503.009 1963.78 624.625C2015.41 746.253 2155.85 802.989 2277.46 751.369C2399.08 699.746 2455.83 559.311 2404.2 437.684C2352.58 316.07 2212.14 259.327 2090.52 310.95Z" fill="white" fill-opacity="0.1"/>
<path d="M1685.2 1165.73C1598.6 1142.43 1474.98 1172.69 1410.12 1214.06C1399.7 1220.7 1385.87 1217.65 1379.23 1207.23C1372.59 1196.81 1375.64 1182.98 1386.06 1176.33C1460.51 1128.84 1597.11 1095.71 1696.81 1122.51C1708.76 1125.72 1715.81 1138.01 1712.61 1149.92C1709.41 1161.87 1697.12 1168.95 1685.2 1165.73ZM1701.07 1231.72C1698.22 1241.64 1687.91 1247.39 1678.02 1244.56C1605.45 1223.85 1507.97 1239.27 1440.96 1282.02C1432.26 1287.55 1420.73 1285.01 1415.19 1276.33C1412.54 1272.16 1411.65 1267.1 1412.72 1262.27C1413.79 1257.45 1416.73 1253.24 1420.89 1250.58C1497.44 1201.75 1604.9 1184.91 1688.24 1208.69C1698.14 1211.52 1703.89 1221.84 1701.07 1231.72ZM1690.45 1302.35C1689.92 1304.23 1689.02 1306 1687.81 1307.54C1686.6 1309.08 1685.09 1310.36 1683.38 1311.32C1681.68 1312.28 1679.79 1312.89 1677.85 1313.12C1675.9 1313.34 1673.93 1313.19 1672.05 1312.65C1608.69 1294.75 1538.51 1306.36 1463.46 1347.13C1461.74 1348.07 1459.85 1348.66 1457.9 1348.86C1455.96 1349.07 1453.99 1348.89 1452.11 1348.33C1450.24 1347.77 1448.49 1346.85 1446.96 1345.62C1445.44 1344.39 1444.18 1342.87 1443.25 1341.15C1442.31 1339.43 1441.72 1337.55 1441.51 1335.6C1441.31 1333.65 1441.49 1331.68 1442.04 1329.8C1442.6 1327.93 1443.52 1326.18 1444.75 1324.65C1445.98 1323.13 1447.5 1321.87 1449.23 1320.94C1531.36 1276.3 1609.04 1263.85 1680.15 1283.94C1682.04 1284.47 1683.8 1285.37 1685.34 1286.58C1686.88 1287.79 1688.16 1289.3 1689.12 1291.01C1690.07 1292.72 1690.68 1294.6 1690.91 1296.54C1691.14 1298.49 1690.98 1300.46 1690.45 1302.35ZM1491.73 999.687C1364.51 1035.32 1290.26 1167.35 1325.9 1294.57C1361.54 1421.8 1493.57 1496.04 1620.79 1460.4C1748.01 1424.76 1822.26 1292.74 1786.62 1165.51C1750.98 1038.29 1618.95 964.047 1491.73 999.687Z" fill="white" fill-opacity="0.1"/>
<path d="M1573.8 391.3C1536.56 309.714 1434.46 233.738 1361.24 210.124C1349.48 206.329 1343.02 193.722 1346.82 181.968C1350.62 170.208 1363.21 163.744 1374.98 167.536C1459.03 194.641 1571.61 278.797 1614.5 372.703C1619.64 383.953 1614.68 397.221 1603.45 402.348C1592.2 407.489 1578.92 402.535 1573.8 391.3ZM1533.06 445.584C1523.6 449.712 1512.6 445.43 1508.48 436.003C1478.19 366.887 1404.18 301.592 1328.53 277.197C1318.73 274.02 1313.34 263.515 1316.49 253.717C1318.01 249.013 1321.34 245.108 1325.74 242.854C1330.15 240.603 1335.26 240.187 1339.97 241.699C1426.38 269.572 1507.84 341.642 1542.63 421.02C1546.76 430.454 1542.48 441.462 1533.06 445.584ZM1471.87 482.413C1470.08 483.205 1468.15 483.64 1466.19 483.686C1464.23 483.732 1462.28 483.393 1460.45 482.686C1458.63 481.98 1456.96 480.919 1455.54 479.565C1454.12 478.212 1452.99 476.592 1452.2 474.8C1425.62 414.565 1371.95 367.883 1292.69 336.035C1290.87 335.306 1289.22 334.227 1287.82 332.856C1286.42 331.488 1285.31 329.857 1284.54 328.056C1283.77 326.256 1283.36 324.321 1283.34 322.364C1283.32 320.408 1283.69 318.465 1284.42 316.65C1285.14 314.831 1286.22 313.175 1287.59 311.774C1288.96 310.373 1290.59 309.257 1292.39 308.488C1294.2 307.718 1296.13 307.314 1298.09 307.293C1300.05 307.274 1301.99 307.64 1303.81 308.373C1390.55 343.213 1449.66 395.142 1479.49 462.747C1480.29 464.538 1480.71 466.469 1480.76 468.425C1480.81 470.384 1480.46 472.334 1479.76 474.159C1479.05 475.985 1477.99 477.654 1476.63 479.07C1475.28 480.487 1473.66 481.62 1471.87 482.413ZM1578.45 136.385C1469.91 61.0645 1320.85 87.9921 1245.53 196.535C1170.2 305.089 1197.13 454.142 1305.67 529.464C1414.22 604.789 1563.27 577.864 1638.61 469.31C1713.93 360.769 1687 211.712 1578.45 136.385Z" fill="white" fill-opacity="0.1"/>
</svg>
