<svg width="2004" height="1398" viewBox="0 0 2004 1398" fill="none" xmlns="http://www.w3.org/2000/svg">
<path d="M811.226 675.952C749.377 639.222 647.358 635.845 588.314 653.764C578.83 656.641 568.806 651.289 565.935 641.807C563.062 632.32 568.406 622.3 577.894 619.419C645.674 598.845 758.341 602.818 829.544 645.085C838.074 650.149 840.868 661.162 835.815 669.674C830.757 678.204 819.734 681.016 811.226 675.952ZM809.2 730.354C804.861 737.396 795.654 739.604 788.623 735.28C737.061 703.586 658.432 694.404 597.428 712.921C589.518 715.309 581.161 710.852 578.759 702.954C577.613 699.157 578.021 695.061 579.891 691.564C581.761 688.068 584.941 685.455 588.735 684.299C658.422 663.151 745.055 673.392 804.278 709.788C811.311 714.118 813.523 723.329 809.2 730.354ZM785.722 782.601C784.904 783.943 783.831 785.111 782.561 786.038C781.291 786.964 779.852 787.632 778.324 788.002C776.798 788.372 775.213 788.436 773.66 788.192C772.108 787.948 770.618 787.4 769.278 786.58C724.221 759.043 667.508 752.824 600.718 768.08C599.188 768.431 597.604 768.476 596.056 768.213C594.508 767.951 593.027 767.386 591.698 766.55C590.369 765.715 589.216 764.626 588.307 763.346C587.398 762.067 586.751 760.619 586.402 759.09C586.05 757.558 586.005 755.973 586.266 754.424C586.528 752.875 587.091 751.394 587.927 750.063C588.762 748.732 589.853 747.581 591.133 746.672C592.415 745.763 593.863 745.116 595.394 744.769C668.485 728.062 731.179 735.252 781.754 766.156C783.095 766.974 784.26 768.05 785.185 769.318C786.111 770.588 786.777 772.029 787.145 773.555C787.513 775.083 787.578 776.667 787.334 778.22C787.09 779.772 786.54 781.26 785.722 782.601ZM697.723 505.852C591.759 505.852 505.852 591.756 505.852 697.723C505.852 803.701 591.759 889.601 697.725 889.601C803.695 889.601 889.601 803.701 889.601 697.723C889.601 591.758 803.695 505.852 697.723 505.852Z" fill="white" fill-opacity="0.1"/>
<path d="M337.026 271.06C268.226 250.063 168.321 271.003 115.22 302.427C106.69 307.472 95.6819 304.654 90.6418 296.124C85.5987 287.59 88.4117 276.589 96.9437 271.537C157.902 235.46 268.292 212.572 347.493 236.726C356.981 239.62 362.31 249.655 359.422 259.124C356.534 268.611 346.494 273.959 337.026 271.06ZM347.974 324.387C345.43 332.258 337.011 336.589 329.154 334.058C271.542 315.511 192.982 325.258 138.118 357.729C131 361.926 121.824 359.581 117.616 352.479C115.601 349.062 115.025 344.987 116.011 341.145C116.998 337.306 119.467 334.012 122.878 331.988C185.552 294.901 272.139 284.282 338.31 305.578C346.17 308.114 350.505 316.537 347.974 324.387ZM337.571 380.715C337.095 382.212 336.33 383.602 335.316 384.803C334.303 386.005 333.063 386.995 331.667 387.717C330.272 388.439 328.747 388.878 327.181 389.009C325.615 389.14 324.038 388.962 322.542 388.484C272.235 372.43 215.667 379.854 154.408 410.529C153.006 411.233 151.478 411.653 149.911 411.765C148.346 411.878 146.773 411.681 145.283 411.185C143.794 410.689 142.415 409.905 141.229 408.877C140.042 407.851 139.07 406.598 138.368 405.195C137.662 403.791 137.241 402.261 137.128 400.695C137.014 399.128 137.21 397.555 137.706 396.064C138.201 394.573 138.987 393.196 140.015 392.009C141.045 390.822 142.298 389.849 143.703 389.149C210.737 355.567 273.346 347.668 329.812 365.682C331.309 366.158 332.696 366.927 333.895 367.939C335.097 368.953 336.086 370.194 336.806 371.59C337.526 372.987 337.965 374.51 338.096 376.076C338.228 377.642 338.047 379.218 337.571 380.715ZM186.386 132.769C83.4516 157.925 20.394 261.768 45.5511 364.706C70.7107 467.654 174.556 530.703 277.492 505.547C380.433 480.389 443.489 376.55 418.33 273.602C393.173 170.666 289.329 107.61 186.386 132.769Z" fill="white" fill-opacity="0.1"/>
<path d="M491.45 1171.1C441.895 1118.96 344.622 1088.01 282.932 1089.23C273.023 1089.43 264.828 1081.55 264.638 1071.65C264.449 1061.74 272.313 1053.54 282.226 1053.35C353.046 1051.94 460.404 1086.35 517.46 1146.36C524.295 1153.55 523.994 1164.91 516.82 1171.73C509.636 1178.57 498.264 1178.28 491.45 1171.1ZM474.733 1222.91C468.644 1228.51 459.184 1228.13 453.59 1222.06C412.568 1177.56 339.385 1147.38 275.645 1148.64C267.383 1148.79 260.55 1142.23 260.382 1133.98C260.31 1130.01 261.815 1126.18 264.564 1123.32C267.312 1120.47 271.082 1118.82 275.048 1118.73C347.859 1117.3 428.459 1150.67 475.578 1201.78C481.171 1207.85 480.8 1217.32 474.733 1222.91ZM437.953 1266.82C436.801 1267.89 435.451 1268.72 433.978 1269.27C432.504 1269.82 430.938 1270.07 429.367 1270.01C427.797 1269.95 426.254 1269.58 424.826 1268.93C423.398 1268.27 422.113 1267.34 421.046 1266.18C385.156 1227.45 332.261 1206.07 263.838 1202.62C262.27 1202.54 260.734 1202.16 259.314 1201.48C257.896 1200.81 256.624 1199.87 255.572 1198.7C254.519 1197.54 253.705 1196.18 253.178 1194.7C252.65 1193.22 252.421 1191.65 252.5 1190.08C252.577 1188.51 252.963 1186.97 253.636 1185.56C254.308 1184.14 255.252 1182.86 256.418 1181.81C257.583 1180.75 258.945 1179.94 260.424 1179.42C261.905 1178.89 263.474 1178.66 265.042 1178.74C339.923 1182.5 398.311 1206.44 438.598 1249.91C439.667 1251.07 440.496 1252.42 441.041 1253.89C441.588 1255.36 441.838 1256.93 441.778 1258.5C441.718 1260.07 441.35 1261.61 440.693 1263.04C440.037 1264.47 439.104 1265.75 437.953 1266.82ZM428.385 976.573C326.4 947.808 220.399 1007.17 191.633 1109.15C162.864 1211.15 222.227 1317.15 324.213 1345.91C426.205 1374.68 532.204 1315.33 560.972 1213.33C589.738 1111.34 530.378 1005.34 428.385 976.573Z" fill="white" fill-opacity="0.1"/>
<path d="M1847.67 361.634C1776.39 351.989 1681.16 388.741 1633.81 428.306C1626.21 434.659 1614.89 433.65 1608.54 426.043C1602.19 418.433 1603.19 407.122 1610.8 400.762C1665.15 355.34 1770.42 314.976 1852.48 326.062C1862.31 327.391 1869.18 336.437 1867.86 346.247C1866.53 356.075 1857.48 362.97 1847.67 361.634ZM1867.06 412.502C1865.82 420.68 1858.21 426.31 1850.05 425.077C1790.2 416.048 1714.23 438.318 1665.32 479.199C1658.97 484.488 1649.53 483.651 1644.24 477.319C1641.7 474.271 1640.47 470.342 1640.83 466.392C1641.18 462.443 1643.09 458.796 1646.13 456.249C1702.01 409.553 1785.76 385.131 1854.5 395.495C1862.66 396.732 1868.3 404.347 1867.06 412.502ZM1865.87 469.77C1865.64 471.324 1865.11 472.819 1864.3 474.168C1863.49 475.517 1862.43 476.694 1861.17 477.632C1859.91 478.568 1858.47 479.247 1856.95 479.629C1855.42 480.011 1853.84 480.089 1852.28 479.857C1800.05 472.114 1745.42 488.549 1689.9 528.688C1688.62 529.608 1687.18 530.269 1685.66 530.632C1684.13 530.995 1682.54 531.054 1680.99 530.804C1679.44 530.554 1677.96 530.003 1676.62 529.179C1675.29 528.358 1674.12 527.278 1673.21 526.006C1672.28 524.734 1671.62 523.292 1671.26 521.764C1670.89 520.236 1670.83 518.652 1671.08 517.101C1671.33 515.549 1671.88 514.064 1672.71 512.727C1673.53 511.389 1674.61 510.228 1675.89 509.31C1736.64 465.373 1797.16 447.496 1855.79 456.182C1857.34 456.411 1858.84 456.947 1860.18 457.753C1861.53 458.56 1862.71 459.626 1863.64 460.887C1864.58 462.15 1865.26 463.582 1865.64 465.107C1866.02 466.631 1866.1 468.216 1865.87 469.77ZM1676.73 249.403C1579.19 290.805 1533.68 403.446 1575.08 500.99C1616.49 598.543 1729.13 644.05 1826.67 602.647C1924.22 561.242 1969.73 448.604 1928.32 351.051C1886.92 253.509 1774.28 207.997 1676.73 249.403Z" fill="white" fill-opacity="0.1"/>
<path d="M1351.64 934.993C1282.18 916.307 1183.03 940.575 1131.01 973.757C1122.65 979.085 1111.56 976.636 1106.23 968.28C1100.91 959.919 1103.35 948.829 1111.71 943.495C1171.43 905.4 1280.99 878.835 1360.95 900.328C1370.53 902.903 1376.2 912.755 1373.63 922.315C1371.06 931.893 1361.2 937.573 1351.64 934.993ZM1364.37 987.924C1362.09 995.875 1353.82 1000.49 1345.88 998.218C1287.68 981.607 1209.49 993.975 1155.74 1028.26C1148.77 1032.7 1139.52 1030.66 1135.08 1023.7C1132.95 1020.35 1132.24 1016.3 1133.09 1012.43C1133.95 1008.56 1136.31 1005.18 1139.65 1003.05C1201.05 963.884 1287.23 950.376 1354.08 969.449C1362.02 971.72 1366.63 979.994 1364.37 987.924ZM1355.85 1044.57C1355.43 1046.08 1354.71 1047.5 1353.73 1048.73C1352.76 1049.96 1351.56 1051 1350.18 1051.76C1348.81 1052.53 1347.31 1053.02 1345.74 1053.2C1344.18 1053.39 1342.6 1053.26 1341.09 1052.83C1290.28 1038.47 1233.99 1047.78 1173.79 1080.49C1172.41 1081.24 1170.9 1081.71 1169.33 1081.87C1167.77 1082.04 1166.2 1081.89 1164.69 1081.45C1163.18 1081 1161.78 1080.27 1160.56 1079.28C1159.34 1078.29 1158.33 1077.07 1157.58 1075.69C1156.83 1074.31 1156.35 1072.8 1156.19 1071.24C1156.02 1069.68 1156.17 1068.1 1156.61 1066.59C1157.06 1065.08 1157.8 1063.68 1158.78 1062.46C1159.77 1061.24 1160.99 1060.23 1162.37 1059.48C1228.25 1023.67 1290.56 1013.69 1347.59 1029.8C1349.11 1030.23 1350.52 1030.95 1351.75 1031.92C1352.99 1032.9 1354.02 1034.1 1354.78 1035.47C1355.55 1036.85 1356.04 1038.35 1356.22 1039.91C1356.41 1041.47 1356.28 1043.06 1355.85 1044.57ZM1196.46 801.814C1094.43 830.398 1034.88 936.291 1063.46 1038.33C1092.05 1140.38 1197.94 1199.92 1299.98 1171.34C1402.02 1142.75 1461.57 1036.86 1432.98 934.815C1404.4 832.777 1298.51 773.229 1196.46 801.814Z" fill="white" fill-opacity="0.1"/>
<path d="M1262.29 313.848C1232.42 248.411 1150.53 187.473 1091.8 168.533C1082.37 165.489 1077.19 155.377 1080.24 145.95C1083.28 136.518 1093.39 131.333 1102.82 134.375C1170.24 156.115 1260.54 223.614 1294.94 298.933C1299.06 307.956 1295.08 318.597 1286.07 322.709C1277.05 326.833 1266.39 322.859 1262.29 313.848ZM1229.61 357.388C1222.03 360.699 1213.21 357.264 1209.9 349.703C1185.6 294.268 1126.24 241.896 1065.57 222.33C1057.71 219.782 1053.38 211.356 1055.91 203.498C1057.13 199.724 1059.8 196.592 1063.33 194.785C1066.86 192.979 1070.97 192.646 1074.74 193.858C1144.05 216.214 1209.39 274.019 1237.29 337.686C1240.6 345.252 1237.17 354.081 1229.61 357.388ZM1180.53 386.927C1179.1 387.562 1177.55 387.911 1175.98 387.948C1174.41 387.985 1172.84 387.713 1171.38 387.146C1169.91 386.579 1168.57 385.729 1167.44 384.643C1166.3 383.557 1165.39 382.258 1164.76 380.821C1143.44 332.509 1100.39 295.066 1036.82 269.522C1035.36 268.938 1034.04 268.072 1032.92 266.973C1031.79 265.875 1030.9 264.567 1030.28 263.123C1029.67 261.678 1029.34 260.127 1029.32 258.557C1029.31 256.988 1029.6 255.43 1030.19 253.974C1030.77 252.515 1031.64 251.187 1032.73 250.063C1033.83 248.94 1035.14 248.044 1036.58 247.427C1038.03 246.81 1039.58 246.486 1041.15 246.469C1042.72 246.453 1044.28 246.747 1045.74 247.335C1115.31 275.28 1162.72 316.93 1186.65 371.153C1187.29 372.59 1187.63 374.139 1187.67 375.708C1187.7 377.279 1187.43 378.842 1186.86 380.306C1186.29 381.771 1185.44 383.11 1184.36 384.246C1183.27 385.382 1181.97 386.291 1180.53 386.927ZM1266.02 109.39C1178.96 48.9777 1059.41 70.5754 998.995 157.634C938.575 244.701 960.18 364.251 1047.24 424.664C1134.3 485.081 1253.85 463.485 1314.27 376.418C1374.68 289.361 1353.08 169.807 1266.02 109.39Z" fill="white" fill-opacity="0.1"/>
</svg>
