<svg width="330" height="94.5" viewBox="0 0 220 63" fill="none" xmlns="http://www.w3.org/2000/svg">
<path d="M16.276 50.624C13.364 50.624 10.5733 50.2427 7.904 49.48C5.23467 48.6827 3.08533 47.66 1.456 46.412L4.316 40.068C5.876 41.1773 7.71333 42.096 9.828 42.824C11.9773 43.5173 14.144 43.864 16.328 43.864C17.992 43.864 19.3267 43.708 20.332 43.396C21.372 43.0493 22.1347 42.5813 22.62 41.992C23.1053 41.4027 23.348 40.7267 23.348 39.964C23.348 38.9933 22.9667 38.2307 22.204 37.676C21.4413 37.0867 20.436 36.6187 19.188 36.272C17.94 35.8907 16.5533 35.544 15.028 35.232C13.5373 34.8853 12.0293 34.4693 10.504 33.984C9.01333 33.4987 7.644 32.8747 6.396 32.112C5.148 31.3493 4.12533 30.344 3.328 29.096C2.56533 27.848 2.184 26.2533 2.184 24.312C2.184 22.232 2.73867 20.3427 3.848 18.644C4.992 16.9107 6.69067 15.5413 8.944 14.536C11.232 13.496 14.092 12.976 17.524 12.976C19.812 12.976 22.0653 13.2533 24.284 13.808C26.5027 14.328 28.4613 15.1253 30.16 16.2L27.56 22.596C25.8613 21.6253 24.1627 20.9147 22.464 20.464C20.7653 19.9787 19.1013 19.736 17.472 19.736C15.8427 19.736 14.508 19.9267 13.468 20.308C12.428 20.6893 11.6827 21.192 11.232 21.816C10.7813 22.4053 10.556 23.0987 10.556 23.896C10.556 24.832 10.9373 25.5947 11.7 26.184C12.4627 26.7387 13.468 27.1893 14.716 27.536C15.964 27.8827 17.3333 28.2293 18.824 28.576C20.3493 28.9227 21.8573 29.3213 23.348 29.772C24.8733 30.2227 26.26 30.8293 27.508 31.592C28.756 32.3547 29.7613 33.36 30.524 34.608C31.3213 35.856 31.72 37.4333 31.72 39.34C31.72 41.3853 31.148 43.2573 30.004 44.956C28.86 46.6547 27.144 48.024 24.856 49.064C22.6027 50.104 19.7427 50.624 16.276 50.624ZM53.4402 50.416C51.0828 50.416 49.0202 49.896 47.2522 48.856C45.4842 47.816 44.0975 46.2387 43.0922 44.124C42.1215 41.9747 41.6362 39.2707 41.6362 36.012C41.6362 32.7187 42.1042 30.0147 43.0402 27.9C43.9762 25.7853 45.3282 24.208 47.0962 23.168C48.8642 22.128 50.9788 21.608 53.4402 21.608C56.0748 21.608 58.4322 22.2147 60.5122 23.428C62.6268 24.6067 64.2908 26.2707 65.5042 28.42C66.7522 30.5693 67.3762 33.1 67.3762 36.012C67.3762 38.9587 66.7522 41.5067 65.5042 43.656C64.2908 45.8053 62.6268 47.4693 60.5122 48.648C58.4322 49.8267 56.0748 50.416 53.4402 50.416ZM36.9042 60.088V22.024H44.6522V27.744L44.4962 36.064L45.0162 44.332V60.088H36.9042ZM52.0362 43.76C53.3882 43.76 54.5842 43.448 55.6242 42.824C56.6988 42.2 57.5482 41.316 58.1722 40.172C58.8308 38.9933 59.1602 37.6067 59.1602 36.012C59.1602 34.3827 58.8308 32.996 58.1722 31.852C57.5482 30.708 56.6988 29.824 55.6242 29.2C54.5842 28.576 53.3882 28.264 52.0362 28.264C50.6842 28.264 49.4708 28.576 48.3962 29.2C47.3215 29.824 46.4722 30.708 45.8482 31.852C45.2242 32.996 44.9122 34.3827 44.9122 36.012C44.9122 37.6067 45.2242 38.9933 45.8482 40.172C46.4722 41.316 47.3215 42.2 48.3962 42.824C49.4708 43.448 50.6842 43.76 52.0362 43.76Z" fill="white"/>
<circle cx="88" cy="36" r="14" stroke="white" stroke-width="6"/>
<path d="M94.5068 34.7517C90.9611 32.646 85.1124 32.4524 81.7275 33.4797C81.1838 33.6446 80.6091 33.3378 80.4445 32.7942C80.2798 32.2503 80.5862 31.6759 81.1301 31.5107C85.0159 30.3312 91.475 30.559 95.557 32.9821C96.046 33.2724 96.2062 33.9038 95.9165 34.3918C95.6265 34.8808 94.9945 35.042 94.5067 34.7517M94.3907 37.8705C94.1419 38.2742 93.6141 38.4008 93.211 38.1529C90.255 36.3359 85.7473 35.8095 82.25 36.8711C81.7965 37.008 81.3174 36.7525 81.1797 36.2997C81.114 36.082 81.1374 35.8472 81.2446 35.6467C81.3518 35.4463 81.5341 35.2965 81.7516 35.2302C85.7467 34.0178 90.7133 34.6049 94.1085 36.6915C94.5117 36.9397 94.6385 37.4678 94.3907 37.8705ZM93.0447 40.8658C92.9978 40.9427 92.9363 41.0097 92.8635 41.0628C92.7907 41.1159 92.7082 41.1542 92.6206 41.1754C92.5331 41.1966 92.4422 41.2003 92.3532 41.1863C92.2642 41.1723 92.1788 41.1409 92.102 41.0939C89.5189 39.5152 86.2676 39.1587 82.4386 40.0333C82.3509 40.0534 82.2601 40.056 82.1713 40.0409C82.0826 40.0259 81.9977 39.9935 81.9215 39.9456C81.8453 39.8977 81.7792 39.8353 81.7271 39.7619C81.675 39.6886 81.6379 39.6056 81.6179 39.5179C81.5977 39.4301 81.5951 39.3392 81.6101 39.2504C81.6251 39.1616 81.6574 39.0767 81.7053 39.0004C81.7532 38.9241 81.8157 38.8581 81.8891 38.806C81.9626 38.7539 82.0456 38.7168 82.1334 38.6969C86.3236 37.7391 89.9178 38.1513 92.8172 39.923C92.8941 39.9699 92.9609 40.0316 93.0139 40.1043C93.067 40.1771 93.1052 40.2597 93.1263 40.3472C93.1474 40.4348 93.1511 40.5256 93.1371 40.6146C93.1231 40.7036 93.0916 40.7889 93.0447 40.8658ZM87.9998 25C81.925 25 77 29.9248 77 35.9998C77 42.0754 81.925 47 87.9999 47C94.0751 47 99 42.0754 99 35.9998C99 29.9249 94.0751 25 87.9998 25Z" fill="#1ED660"/>
<path d="M122.184 50.416C118.891 50.416 116.325 49.584 114.488 47.92C112.651 46.2213 111.732 43.708 111.732 40.38V15.836H119.844V40.276C119.844 41.4547 120.156 42.3733 120.78 43.032C121.404 43.656 122.253 43.968 123.328 43.968C124.611 43.968 125.703 43.6213 126.604 42.928L128.788 48.648C127.956 49.2373 126.951 49.688 125.772 50C124.628 50.2773 123.432 50.416 122.184 50.416ZM107.416 28.888V22.648H126.812V28.888H107.416ZM144.172 50.416C140.879 50.416 138.314 49.584 136.476 47.92C134.639 46.2213 133.72 43.708 133.72 40.38V15.836H141.832V40.276C141.832 41.4547 142.144 42.3733 142.768 43.032C143.392 43.656 144.242 43.968 145.316 43.968C146.599 43.968 147.691 43.6213 148.592 42.928L150.776 48.648C149.944 49.2373 148.939 49.688 147.76 50C146.616 50.2773 145.42 50.416 144.172 50.416ZM129.404 28.888V22.648H148.8V28.888H129.404ZM168.351 50.416C165.161 50.416 162.353 49.792 159.927 48.544C157.535 47.296 155.68 45.5973 154.363 43.448C153.045 41.264 152.387 38.7853 152.387 36.012C152.387 33.204 153.028 30.7253 154.311 28.576C155.628 26.392 157.413 24.6933 159.667 23.48C161.92 22.232 164.468 21.608 167.311 21.608C170.049 21.608 172.511 22.1973 174.695 23.376C176.913 24.52 178.664 26.184 179.947 28.368C181.229 30.5173 181.871 33.1 181.871 36.116C181.871 36.428 181.853 36.792 181.819 37.208C181.784 37.5893 181.749 37.9533 181.715 38.3H158.991V33.568H177.451L174.331 34.972C174.331 33.516 174.036 32.2507 173.447 31.176C172.857 30.1013 172.043 29.2693 171.003 28.68C169.963 28.056 168.749 27.744 167.363 27.744C165.976 27.744 164.745 28.056 163.671 28.68C162.631 29.2693 161.816 30.1187 161.227 31.228C160.637 32.3027 160.343 33.5853 160.343 35.076V36.324C160.343 37.8493 160.672 39.2013 161.331 40.38C162.024 41.524 162.977 42.408 164.191 43.032C165.439 43.6213 166.895 43.916 168.559 43.916C170.049 43.916 171.349 43.6907 172.459 43.24C173.603 42.7893 174.643 42.1133 175.579 41.212L179.895 45.892C178.612 47.348 177 48.4747 175.059 49.272C173.117 50.0347 170.881 50.416 168.351 50.416ZM199.283 50.416C196.649 50.416 194.274 49.8267 192.159 48.648C190.045 47.4347 188.363 45.7533 187.115 43.604C185.902 41.4547 185.295 38.924 185.295 36.012C185.295 33.0653 185.902 30.5173 187.115 28.368C188.363 26.2187 190.045 24.5547 192.159 23.376C194.274 22.1973 196.649 21.608 199.283 21.608C201.641 21.608 203.703 22.128 205.471 23.168C207.239 24.208 208.609 25.7853 209.579 27.9C210.55 30.0147 211.035 32.7187 211.035 36.012C211.035 39.2707 210.567 41.9747 209.631 44.124C208.695 46.2387 207.343 47.816 205.575 48.856C203.842 49.896 201.745 50.416 199.283 50.416ZM200.687 43.76C202.005 43.76 203.201 43.448 204.275 42.824C205.35 42.2 206.199 41.316 206.823 40.172C207.482 38.9933 207.811 37.6067 207.811 36.012C207.811 34.3827 207.482 32.996 206.823 31.852C206.199 30.708 205.35 29.824 204.275 29.2C203.201 28.576 202.005 28.264 200.687 28.264C199.335 28.264 198.122 28.576 197.047 29.2C195.973 29.824 195.106 30.708 194.447 31.852C193.823 32.996 193.511 34.3827 193.511 36.012C193.511 37.6067 193.823 38.9933 194.447 40.172C195.106 41.316 195.973 42.2 197.047 42.824C198.122 43.448 199.335 43.76 200.687 43.76ZM208.019 50V44.28L208.175 35.96L207.655 27.692V11.416H215.767V50H208.019Z" fill="white"/>
</svg>
